<?xml version="1.0" encoding="utf-8"?>
<!-- Generator: Adobe Illustrator 26.0.1, SVG Export Plug-In . SVG Version: 6.00 Build 0)  -->
<svg version="1.1" xmlns="http://www.w3.org/2000/svg" xmlns:xlink="http://www.w3.org/1999/xlink" x="0px" y="0px"
	 viewBox="0 0 85.039 85.039" style="enable-background:new 0 0 85.039 85.039;" xml:space="preserve">
<style type="text/css">
	.st0{fill:#38CE00;}
	.st1{fill:#0092CC;}
	.st2{fill:#FFCC83;}
	.st3{fill:#991D41;}
	.st4{fill:#BC2469;}
	.st5{fill:#FCD5A2;}
	.st6{fill:#E59638;}
	.st7{fill:#CC7809;}
	.st8{display:none;}
	.st9{display:inline;fill:#E59638;}
	.st10{display:inline;fill:#CC7809;}
	.st11{fill:#F6F7F8;}
	.st12{fill:#D6D7D8;}
</style>
<g id="Laag_1">
	<circle class="st0" cx="42.52" cy="42.52" r="35.433"/>
	<path class="st1" d="M42.52,7.087c-19.569,0-35.433,15.864-35.433,35.433h70.866C77.953,22.951,62.089,7.087,42.52,7.087z"/>
</g>
<g id="Laag_2">
	<circle class="st2" cx="42.52" cy="35.365" r="10.908"/>
	<path class="st3" d="M49.332,46.272c-1.867,1.497-4.233,2.397-6.813,2.397s-4.945-0.9-6.813-2.397
		c-5.33,0.825-9.415,5.42-9.415,10.981v16.762c4.863,2.511,10.377,3.937,16.227,3.937c5.85,0,11.364-1.427,16.227-3.937V57.253
		C58.747,51.692,54.662,47.097,49.332,46.272z"/>
</g>
<g id="Laag_3">
	<path class="st4" d="M35.707,46.272c1.867,1.497,4.233,2.397,6.813,2.397v29.283c-5.85,0-11.364-1.427-16.227-3.937V57.253
		C26.292,51.692,30.377,47.097,35.707,46.272z"/>
	<path class="st5" d="M42.52,24.457v21.815c-6.024,0-10.907-4.883-10.907-10.908S36.496,24.457,42.52,24.457z"/>
</g>
<g id="Laag_5">
	<path class="st6" d="M31.612,34.532c0,0,3.683-6.098,12.201-4.387s9.531,3.879,9.531,3.879s-0.108-11.214-11.216-10.51
		C31.02,24.217,31.612,34.532,31.612,34.532z"/>
	<path class="st7" d="M42.52,23.492v6.428c0.419,0.06,0.846,0.129,1.294,0.219c8.518,1.711,9.531,3.885,9.531,3.885
		S53.216,23.023,42.52,23.492z"/>
</g>
<g id="Laag_6" class="st8">
	<path class="st9" d="M31.006,46.967c-0.287,2.298,7.539,2.723,6.638-1.723c-0.801-3.955-7.372-14.787,3.033-16.628
		c1.316-0.233,4.753-0.83,4.753-0.83s1.796,1.486,2.618,1.564c5.426,0.511-0.566,12.598,1.245,17.202
		c0.955,2.428,5.936-0.53,5.936-1.404c0-13.497-0.614-21.654-11.745-21.678C26.728,23.433,31.869,40.059,31.006,46.967z"/>
	<path class="st10" d="M43.484,23.469c-0.341-0.001-0.658,0.016-0.98,0.029v4.797c1.406-0.245,2.926-0.509,2.926-0.509
		s1.796,1.486,2.618,1.564c5.426,0.511-0.566,12.598,1.245,17.202c0.955,2.428,5.936-0.53,5.936-1.404
		C55.229,31.651,54.615,23.493,43.484,23.469z"/>
</g>
<g id="Laag_7">
	<g>
		<polygon class="st11" points="65.947,30.49 64.387,30.49 63.253,53.639 67.081,53.639 		"/>
		<g>
			<path class="st12" d="M65.188,31.678L65.188,31.678c-0.469,0.153-0.974-0.104-1.126-0.574l-2.475-7.616
				c-0.153-0.469,0.104-0.974,0.574-1.126v0c0.469-0.153,0.974,0.104,1.126,0.574l2.475,7.616
				C65.914,31.022,65.657,31.526,65.188,31.678z"/>
			<g>
				<path class="st12" d="M64.18,30.621L64.18,30.621c0.19-0.456,0.713-0.671,1.168-0.482l7.393,3.077
					c0.456,0.19,0.671,0.713,0.482,1.168v0c-0.19,0.456-0.713,0.671-1.168,0.482l-7.393-3.077
					C64.206,31.599,63.991,31.076,64.18,30.621z"/>
				<path class="st12" d="M65.496,30.193L65.496,30.193c-0.421-0.257-0.971-0.124-1.228,0.297l-4.171,6.836
					c-0.257,0.421-0.124,0.971,0.297,1.228l0,0c0.421,0.257,0.971,0.124,1.228-0.297l4.171-6.836
					C66.051,31,65.917,30.45,65.496,30.193z"/>
			</g>
		</g>
	</g>
	<g>
		<polygon class="st11" points="19.093,28.019 20.344,28.019 21.253,46.578 18.184,46.578 		"/>
		<g>
			<path class="st12" d="M19.702,28.972L19.702,28.972c0.376,0.122,0.78-0.084,0.903-0.46l1.985-6.106
				c0.122-0.376-0.084-0.78-0.46-0.903h0c-0.376-0.122-0.78,0.084-0.903,0.46l-1.985,6.106C19.12,28.446,19.326,28.85,19.702,28.972
				z"/>
			<g>
				<path class="st12" d="M20.51,28.124L20.51,28.124c-0.152-0.365-0.571-0.538-0.937-0.386l-5.927,2.467
					c-0.365,0.152-0.538,0.571-0.386,0.937h0c0.152,0.365,0.571,0.538,0.937,0.386l5.927-2.467
					C20.489,28.909,20.662,28.49,20.51,28.124z"/>
				<path class="st12" d="M19.455,27.781L19.455,27.781c0.338-0.206,0.779-0.099,0.985,0.238l3.344,5.481
					c0.206,0.338,0.099,0.779-0.238,0.985l0,0c-0.338,0.206-0.779,0.099-0.985-0.238l-3.344-5.481
					C19.01,28.428,19.117,27.988,19.455,27.781z"/>
			</g>
		</g>
	</g>
</g>
</svg>